<svg xmlns="http://www.w3.org/2000/svg" width="512" height="512" viewBox="0 0 512 512">
  <defs>
    <filter id="fiber" x="-20%" y="-20%" width="140%" height="140%">
      <feTurbulence type="fractalNoise" baseFrequency="1.2" numOctaves="4" seed="53" stitchTiles="stitch" />
      <feColorMatrix
        type="matrix"
        values="0 0 0 0 0.34 0 0 0 0 0.38 0 0 0 0 0.43 0 0 0 0.9 0"
      />
    </filter>
    <pattern id="nap" width="24" height="24" patternUnits="userSpaceOnUse">
      <rect width="24" height="24" fill="transparent" />
      <path d="M2 2 L6 5" stroke="#8f98a3" stroke-opacity="0.16" stroke-width="0.8" />
      <path d="M11 9 L15 12" stroke="#9ba4af" stroke-opacity="0.14" stroke-width="0.8" />
      <path d="M16 18 L20 21" stroke="#7e8894" stroke-opacity="0.17" stroke-width="0.8" />
      <path d="M7 16 L10 19" stroke="#6f7985" stroke-opacity="0.16" stroke-width="0.8" />
    </pattern>
  </defs>

  <rect width="512" height="512" fill="#30363e" />
  <rect width="512" height="512" fill="#434b56" fill-opacity="0.38" />
  <rect width="512" height="512" filter="url(#fiber)" opacity="0.45" />
  <rect width="512" height="512" fill="url(#nap)" />
  <path d="M-16 126 C86 82 172 166 274 126 C364 90 450 150 536 114" stroke="#c1c8d2" stroke-opacity="0.08" stroke-width="8" fill="none" />
  <path d="M-18 344 C84 302 172 384 272 348 C362 314 446 366 534 330" stroke="#1f242b" stroke-opacity="0.42" stroke-width="10" fill="none" />
</svg>
